<svg width="26" height="26" viewBox="0 0 26 26" fill="none" xmlns="http://www.w3.org/2000/svg">
<g filter="url(#filter0_i_83_2)">
<circle cx="13" cy="13" r="13" fill="#E0E6EC" fill-opacity="0.5"/>
</g>
<circle cx="13" cy="13" r="12.75" stroke="url(#paint0_linear_83_2)" stroke-opacity="0.2" stroke-width="0.5"/>
<path d="M18.1626 11.2898H16.0376C15.977 10.9413 15.8653 10.6326 15.7024 10.3636C15.5395 10.0909 15.3369 9.85985 15.0945 9.67045C14.852 9.48106 14.5755 9.33901 14.2649 9.24432C13.9581 9.14583 13.6267 9.09659 13.2706 9.09659C12.638 9.09659 12.0774 9.25568 11.5888 9.57386C11.1001 9.88826 10.7176 10.3504 10.4411 10.9602C10.1645 11.5663 10.0263 12.3068 10.0263 13.1818C10.0263 14.072 10.1645 14.822 10.4411 15.4318C10.7214 16.0379 11.1039 16.4962 11.5888 16.8068C12.0774 17.1136 12.6361 17.267 13.2649 17.267C13.6134 17.267 13.9392 17.2216 14.2422 17.1307C14.549 17.036 14.8236 16.8977 15.0661 16.7159C15.3123 16.5341 15.5187 16.3106 15.6854 16.0455C15.8558 15.7803 15.9732 15.4773 16.0376 15.1364L18.1626 15.1477C18.0831 15.7008 17.9107 16.2197 17.6456 16.7045C17.3842 17.1894 17.0414 17.6174 16.6172 17.9886C16.1929 18.3561 15.6967 18.6439 15.1286 18.8523C14.5604 19.0568 13.9297 19.1591 13.2365 19.1591C12.2138 19.1591 11.3009 18.9223 10.4979 18.4489C9.69484 17.9754 9.06226 17.2917 8.60014 16.3977C8.13802 15.5038 7.90696 14.4318 7.90696 13.1818C7.90696 11.928 8.13991 10.8561 8.60582 9.96591C9.07173 9.07197 9.7062 8.38826 10.5092 7.91477C11.3123 7.44129 12.2214 7.20455 13.2365 7.20455C13.8842 7.20455 14.4865 7.29545 15.0433 7.47727C15.6001 7.65909 16.0964 7.92614 16.532 8.27841C16.9676 8.62689 17.3255 9.05492 17.6058 9.5625C17.8899 10.0663 18.0755 10.642 18.1626 11.2898Z" fill="url(#paint1_linear_83_2)"/>
<defs>
<filter id="filter0_i_83_2" x="0" y="0" width="26" height="30" filterUnits="userSpaceOnUse" color-interpolation-filters="sRGB">
<feFlood flood-opacity="0" result="BackgroundImageFix"/>
<feBlend mode="normal" in="SourceGraphic" in2="BackgroundImageFix" result="shape"/>
<feColorMatrix in="SourceAlpha" type="matrix" values="0 0 0 0 0 0 0 0 0 0 0 0 0 0 0 0 0 0 127 0" result="hardAlpha"/>
<feOffset dy="4"/>
<feGaussianBlur stdDeviation="2"/>
<feComposite in2="hardAlpha" operator="arithmetic" k2="-1" k3="1"/>
<feColorMatrix type="matrix" values="0 0 0 0 1 0 0 0 0 1 0 0 0 0 1 0 0 0 0.8 0"/>
<feBlend mode="normal" in2="shape" result="effect1_innerShadow_83_2"/>
</filter>
<linearGradient id="paint0_linear_83_2" x1="13" y1="0" x2="13" y2="26" gradientUnits="userSpaceOnUse">
<stop offset="1" stop-color="#ABB2BB" stop-opacity="0.7"/>
<stop offset="1" stop-color="#3F4246"/>
</linearGradient>
<linearGradient id="paint1_linear_83_2" x1="13" y1="15" x2="13" y2="21" gradientUnits="userSpaceOnUse">
<stop/>
<stop offset="1" stop-color="#999999"/>
</linearGradient>
</defs>
</svg>
